<svg xmlns="http://www.w3.org/2000/svg" xmlns:xlink="http://www.w3.org/1999/xlink" width="2000" zoomAndPan="magnify" viewBox="0 0 1500 374.999991" height="500" preserveAspectRatio="xMidYMid meet" version="1.0"><defs><g/><clipPath id="id1"><path d="M 492.820312 75.65625 L 685.570312 75.65625 L 685.570312 269.15625 L 492.820312 269.15625 Z M 492.820312 75.65625 " clip-rule="nonzero"/></clipPath></defs><g clip-path="url(#id1)"><path fill="#ffffff" d="M 553.835938 125.292969 L 619.4375 125.292969 C 617.84375 126.4375 616.410156 127.75 615.128906 129.234375 C 613.851562 130.722656 612.765625 132.335938 611.871094 134.082031 C 610.976562 135.824219 610.300781 137.648438 609.839844 139.554688 C 609.382812 141.457031 609.152344 143.390625 609.15625 145.351562 L 609.15625 269.15625 C 607.679688 269.15625 606.210938 269.082031 604.742188 268.9375 C 603.277344 268.792969 601.820312 268.578125 600.371094 268.289062 C 598.925781 268 597.496094 267.644531 596.085938 267.214844 C 594.675781 266.789062 593.289062 266.292969 591.925781 265.726562 C 590.5625 265.164062 589.234375 264.535156 587.933594 263.839844 C 586.632812 263.148438 585.367188 262.390625 584.144531 261.574219 C 582.917969 260.753906 581.734375 259.878906 580.59375 258.945312 C 579.453125 258.011719 578.363281 257.023438 577.320312 255.980469 C 576.277344 254.941406 575.289062 253.851562 574.355469 252.710938 C 573.417969 251.574219 572.542969 250.390625 571.722656 249.167969 C 570.902344 247.945312 570.144531 246.683594 569.453125 245.382812 C 568.757812 244.085938 568.125 242.757812 567.5625 241.394531 C 567 240.035156 566.503906 238.652344 566.074219 237.242188 C 565.644531 235.832031 565.289062 234.40625 565 232.964844 C 564.714844 231.519531 564.496094 230.066406 564.351562 228.597656 C 564.207031 227.132812 564.136719 225.664062 564.136719 224.195312 L 564.136719 145.34375 C 564.136719 143.382812 563.90625 141.449219 563.445312 139.546875 C 562.984375 137.640625 562.308594 135.816406 561.410156 134.074219 C 560.515625 132.332031 559.429688 130.71875 558.148438 129.234375 C 556.867188 127.75 555.429688 126.433594 553.835938 125.292969 Z M 663.441406 92.925781 C 650.8125 81.066406 635 75.65625 622.1875 75.65625 L 492.898438 75.65625 C 492.894531 78.609375 493.179688 81.53125 493.757812 84.429688 C 494.332031 87.324219 495.1875 90.136719 496.316406 92.867188 C 497.449219 95.59375 498.839844 98.183594 500.484375 100.640625 C 502.128906 103.09375 504 105.363281 506.09375 107.449219 C 508.046875 109.40625 510.167969 111.167969 512.449219 112.730469 C 514.730469 114.296875 517.136719 115.640625 519.667969 116.761719 C 522.199219 117.882812 524.808594 118.761719 527.503906 119.402344 C 530.199219 120.039062 532.925781 120.425781 535.691406 120.5625 L 634.875 120.5625 L 634.875 120.628906 C 637.394531 120.667969 639.902344 120.863281 642.398438 121.214844 C 644.894531 121.566406 647.359375 122.066406 649.792969 122.722656 C 652.226562 123.375 654.613281 124.175781 656.945312 125.125 C 659.28125 126.074219 661.546875 127.160156 663.75 128.390625 C 665.949219 129.617188 668.0625 130.976562 670.097656 132.464844 C 672.128906 133.953125 674.058594 135.5625 675.894531 137.289062 C 677.726562 139.019531 679.445312 140.851562 681.050781 142.789062 C 682.65625 144.730469 684.136719 146.761719 685.492188 148.882812 C 685.492188 123.085938 676.0625 104.777344 663.441406 92.925781 Z M 663.441406 92.925781 " fill-opacity="1" fill-rule="nonzero"/></g><g fill="#ffffff" fill-opacity="1"><g transform="translate(706.043091, 259.320499)"><g><path d="M 74.578125 1.890625 C 60.140625 2.015625 47.707031 -0.554688 37.28125 -5.828125 C 26.863281 -11.109375 18.890625 -18.707031 13.359375 -28.625 C 7.835938 -38.539062 5.078125 -50.46875 5.078125 -64.40625 C 5.078125 -78.726562 8.09375 -91.222656 14.125 -101.890625 C 20.15625 -112.566406 28.566406 -120.851562 39.359375 -126.75 C 50.160156 -132.65625 62.78125 -135.609375 77.21875 -135.609375 C 90.40625 -135.609375 101.925781 -132.84375 111.78125 -127.3125 C 121.632812 -121.789062 129.289062 -114.101562 134.75 -104.25 C 140.21875 -94.394531 142.953125 -82.8125 142.953125 -69.5 C 142.953125 -55.4375 140.09375 -43.066406 134.375 -32.390625 C 128.664062 -21.722656 120.660156 -13.375 110.359375 -7.34375 C 100.066406 -1.320312 88.140625 1.753906 74.578125 1.890625 Z M 73.640625 -31.078125 C 83.304688 -31.078125 90.960938 -34.5 96.609375 -41.34375 C 102.265625 -48.1875 105.09375 -57.320312 105.09375 -68.75 C 105.09375 -79.039062 102.425781 -87.257812 97.09375 -93.40625 C 91.757812 -99.5625 84.632812 -102.640625 75.71875 -102.640625 C 69.1875 -102.640625 63.472656 -101.039062 58.578125 -97.84375 C 53.679688 -94.644531 49.878906 -90.25 47.171875 -84.65625 C 44.472656 -79.070312 43.125 -72.640625 43.125 -65.359375 C 43.125 -54.554688 45.820312 -46.140625 51.21875 -40.109375 C 56.625 -34.085938 64.097656 -31.078125 73.640625 -31.078125 Z M 73.640625 -31.078125 "/></g></g></g><g fill="#ffffff" fill-opacity="1"><g transform="translate(901.158548, 259.320499)"><g><path d="M 11.296875 0 L 11.296875 -133.71875 L 48.96875 -133.71875 L 48.96875 -83.4375 L 96.8125 -83.4375 L 96.8125 -133.71875 L 134.484375 -133.71875 L 134.484375 0 L 96.8125 0 L 96.8125 -50.859375 L 48.96875 -50.859375 L 48.96875 0 Z M 11.296875 0 "/></g></g></g><g fill="#ffffff" fill-opacity="1"><g transform="translate(1094.01403, 259.320499)"><g><path d="M 124.125 -133.71875 L 79.296875 -59.703125 L 79.296875 0 L 41.625 0 L 41.625 -57.828125 L -5.46875 -133.71875 L 36.53125 -133.71875 L 61.78125 -92.09375 L 84.9375 -133.71875 Z M 124.125 -133.71875 "/></g></g></g><g fill="#ffffff" fill-opacity="1"><g transform="translate(1260.879682, 259.320499)"><g><path d="M 74.578125 1.890625 C 60.140625 2.015625 47.707031 -0.554688 37.28125 -5.828125 C 26.863281 -11.109375 18.890625 -18.707031 13.359375 -28.625 C 7.835938 -38.539062 5.078125 -50.46875 5.078125 -64.40625 C 5.078125 -78.726562 8.09375 -91.222656 14.125 -101.890625 C 20.15625 -112.566406 28.566406 -120.851562 39.359375 -126.75 C 50.160156 -132.65625 62.78125 -135.609375 77.21875 -135.609375 C 90.40625 -135.609375 101.925781 -132.84375 111.78125 -127.3125 C 121.632812 -121.789062 129.289062 -114.101562 134.75 -104.25 C 140.21875 -94.394531 142.953125 -82.8125 142.953125 -69.5 C 142.953125 -55.4375 140.09375 -43.066406 134.375 -32.390625 C 128.664062 -21.722656 120.660156 -13.375 110.359375 -7.34375 C 100.066406 -1.320312 88.140625 1.753906 74.578125 1.890625 Z M 73.640625 -31.078125 C 83.304688 -31.078125 90.960938 -34.5 96.609375 -41.34375 C 102.265625 -48.1875 105.09375 -57.320312 105.09375 -68.75 C 105.09375 -79.039062 102.425781 -87.257812 97.09375 -93.40625 C 91.757812 -99.5625 84.632812 -102.640625 75.71875 -102.640625 C 69.1875 -102.640625 63.472656 -101.039062 58.578125 -97.84375 C 53.679688 -94.644531 49.878906 -90.25 47.171875 -84.65625 C 44.472656 -79.070312 43.125 -72.640625 43.125 -65.359375 C 43.125 -54.554688 45.820312 -46.140625 51.21875 -40.109375 C 56.625 -34.085938 64.097656 -31.078125 73.640625 -31.078125 Z M 73.640625 -31.078125 "/></g></g></g></svg>