<svg xmlns="http://www.w3.org/2000/svg" xmlns:xlink="http://www.w3.org/1999/xlink" width="2000" zoomAndPan="magnify" viewBox="0 0 1500 374.999991" height="500" preserveAspectRatio="xMidYMid meet" version="1.0"><defs><g/><clipPath id="id1"><path d="M 552.566406 143.15625 L 745.316406 143.15625 L 745.316406 336.65625 L 552.566406 336.65625 Z M 552.566406 143.15625 " clip-rule="nonzero"/></clipPath></defs><g clip-path="url(#id1)"><path fill="#332c54" d="M 613.585938 192.792969 L 679.183594 192.792969 C 677.59375 193.9375 676.15625 195.25 674.878906 196.734375 C 673.597656 198.222656 672.511719 199.835938 671.617188 201.582031 C 670.722656 203.324219 670.046875 205.148438 669.589844 207.054688 C 669.128906 208.957031 668.902344 210.890625 668.902344 212.851562 L 668.902344 336.65625 C 667.429688 336.65625 665.957031 336.582031 664.492188 336.4375 C 663.023438 336.292969 661.566406 336.078125 660.121094 335.789062 C 658.675781 335.5 657.246094 335.144531 655.835938 334.714844 C 654.421875 334.289062 653.035156 333.792969 651.675781 333.226562 C 650.3125 332.664062 648.980469 332.035156 647.679688 331.339844 C 646.378906 330.648438 645.117188 329.890625 643.890625 329.074219 C 642.664062 328.253906 641.480469 327.378906 640.34375 326.445312 C 639.203125 325.511719 638.113281 324.523438 637.070312 323.480469 C 636.027344 322.441406 635.039062 321.351562 634.101562 320.210938 C 633.167969 319.074219 632.289062 317.890625 631.46875 316.667969 C 630.652344 315.445312 629.894531 314.183594 629.199219 312.882812 C 628.503906 311.585938 627.875 310.257812 627.3125 308.894531 C 626.746094 307.535156 626.25 306.152344 625.824219 304.742188 C 625.394531 303.332031 625.035156 301.90625 624.75 300.464844 C 624.460938 299.019531 624.246094 297.566406 624.101562 296.097656 C 623.957031 294.632812 623.882812 293.164062 623.882812 291.695312 L 623.882812 212.84375 C 623.882812 210.882812 623.652344 208.949219 623.195312 207.046875 C 622.734375 205.140625 622.054688 203.316406 621.160156 201.574219 C 620.265625 199.832031 619.175781 198.21875 617.894531 196.734375 C 616.617188 195.25 615.179688 193.933594 613.585938 192.792969 Z M 723.1875 160.425781 C 710.558594 148.566406 694.75 143.15625 681.933594 143.15625 L 552.648438 143.15625 C 552.644531 146.109375 552.929688 149.03125 553.503906 151.929688 C 554.078125 154.824219 554.933594 157.636719 556.066406 160.367188 C 557.199219 163.09375 558.585938 165.683594 560.230469 168.140625 C 561.875 170.59375 563.746094 172.863281 565.839844 174.949219 C 567.796875 176.90625 569.914062 178.667969 572.195312 180.230469 C 574.476562 181.796875 576.882812 183.140625 579.414062 184.261719 C 581.945312 185.382812 584.558594 186.261719 587.253906 186.902344 C 589.945312 187.539062 592.675781 187.925781 595.441406 188.0625 L 694.625 188.0625 L 694.625 188.128906 C 697.144531 188.167969 699.652344 188.363281 702.148438 188.714844 C 704.644531 189.066406 707.109375 189.566406 709.542969 190.222656 C 711.976562 190.875 714.359375 191.675781 716.695312 192.625 C 719.03125 193.574219 721.296875 194.660156 723.496094 195.890625 C 725.695312 197.117188 727.8125 198.476562 729.84375 199.964844 C 731.875 201.453125 733.808594 203.0625 735.640625 204.789062 C 737.472656 206.519531 739.191406 208.351562 740.796875 210.289062 C 742.40625 212.230469 743.882812 214.261719 745.238281 216.382812 C 745.238281 190.585938 735.8125 172.277344 723.1875 160.425781 Z M 723.1875 160.425781 " fill-opacity="1" fill-rule="nonzero"/></g><g fill="#332c54" fill-opacity="1"><g transform="translate(763.303017, 325.599252)"><g><path d="M 74.578125 1.890625 C 60.140625 2.015625 47.707031 -0.554688 37.28125 -5.828125 C 26.863281 -11.109375 18.890625 -18.707031 13.359375 -28.625 C 7.835938 -38.539062 5.078125 -50.46875 5.078125 -64.40625 C 5.078125 -78.71875 8.085938 -91.207031 14.109375 -101.875 C 20.140625 -112.550781 28.550781 -120.835938 39.34375 -126.734375 C 50.144531 -132.628906 62.765625 -135.578125 77.203125 -135.578125 C 90.390625 -135.578125 101.910156 -132.816406 111.765625 -127.296875 C 121.617188 -121.773438 129.273438 -114.085938 134.734375 -104.234375 C 140.191406 -94.378906 142.921875 -82.796875 142.921875 -69.484375 C 142.921875 -55.421875 140.066406 -43.054688 134.359375 -32.390625 C 128.648438 -21.722656 120.644531 -13.375 110.34375 -7.34375 C 100.050781 -1.320312 88.128906 1.753906 74.578125 1.890625 Z M 73.625 -31.078125 C 83.289062 -31.078125 90.945312 -34.492188 96.59375 -41.328125 C 102.25 -48.171875 105.078125 -57.304688 105.078125 -68.734375 C 105.078125 -79.023438 102.410156 -87.242188 97.078125 -93.390625 C 91.742188 -99.546875 84.617188 -102.625 75.703125 -102.625 C 69.171875 -102.625 63.457031 -101.023438 58.5625 -97.828125 C 53.664062 -94.628906 49.867188 -90.234375 47.171875 -84.640625 C 44.472656 -79.054688 43.125 -72.625 43.125 -65.34375 C 43.125 -54.550781 45.820312 -46.140625 51.21875 -40.109375 C 56.613281 -34.085938 64.082031 -31.078125 73.625 -31.078125 Z M 73.625 -31.078125 "/></g></g></g><g fill="#332c54" fill-opacity="1"><g transform="translate(958.39481, 325.599252)"><g><path d="M 11.296875 0 L 11.296875 -133.703125 L 48.96875 -133.703125 L 48.96875 -83.421875 L 96.796875 -83.421875 L 96.796875 -133.703125 L 134.453125 -133.703125 L 134.453125 0 L 96.796875 0 L 96.796875 -50.84375 L 48.96875 -50.84375 L 48.96875 0 Z M 11.296875 0 "/></g></g></g><g fill="#332c54" fill-opacity="1"><g transform="translate(1151.226965, 325.599252)"><g><path d="M 124.09375 -133.703125 L 79.28125 -59.6875 L 79.28125 0 L 41.609375 0 L 41.609375 -57.8125 L -5.46875 -133.703125 L 36.53125 -133.703125 L 61.765625 -92.078125 L 84.921875 -133.703125 Z M 124.09375 -133.703125 "/></g></g></g><g fill="#332c54" fill-opacity="1"><g transform="translate(1318.073448, 325.599252)"><g><path d="M 74.578125 1.890625 C 60.140625 2.015625 47.707031 -0.554688 37.28125 -5.828125 C 26.863281 -11.109375 18.890625 -18.707031 13.359375 -28.625 C 7.835938 -38.539062 5.078125 -50.46875 5.078125 -64.40625 C 5.078125 -78.71875 8.085938 -91.207031 14.109375 -101.875 C 20.140625 -112.550781 28.550781 -120.835938 39.34375 -126.734375 C 50.144531 -132.628906 62.765625 -135.578125 77.203125 -135.578125 C 90.390625 -135.578125 101.910156 -132.816406 111.765625 -127.296875 C 121.617188 -121.773438 129.273438 -114.085938 134.734375 -104.234375 C 140.191406 -94.378906 142.921875 -82.796875 142.921875 -69.484375 C 142.921875 -55.421875 140.066406 -43.054688 134.359375 -32.390625 C 128.648438 -21.722656 120.644531 -13.375 110.34375 -7.34375 C 100.050781 -1.320312 88.128906 1.753906 74.578125 1.890625 Z M 73.625 -31.078125 C 83.289062 -31.078125 90.945312 -34.492188 96.59375 -41.328125 C 102.25 -48.171875 105.078125 -57.304688 105.078125 -68.734375 C 105.078125 -79.023438 102.410156 -87.242188 97.078125 -93.390625 C 91.742188 -99.546875 84.617188 -102.625 75.703125 -102.625 C 69.171875 -102.625 63.457031 -101.023438 58.5625 -97.828125 C 53.664062 -94.628906 49.867188 -90.234375 47.171875 -84.640625 C 44.472656 -79.054688 43.125 -72.625 43.125 -65.34375 C 43.125 -54.550781 45.820312 -46.140625 51.21875 -40.109375 C 56.613281 -34.085938 64.082031 -31.078125 73.625 -31.078125 Z M 73.625 -31.078125 "/></g></g></g></svg>